<svg xmlns="http://www.w3.org/2000/svg" xmlns:xlink="http://www.w3.org/1999/xlink" viewBox="0 0 522 390"><defs><style>.cls-1,.cls-14,.cls-20,.cls-21,.cls-23,.cls-28,.cls-29,.cls-30,.cls-32,.cls-41{fill:none;}.cls-2{fill:#f9b485;}.cls-3{fill:#cdb9ef;}.cls-4{isolation:isolate;}.cls-5{fill:#fb5b20;}.cls-6{fill:#fc5a20;}.cls-7{clip-path:url(#clip-path);}.cls-8{fill:#4f4e4d;}.cls-9{fill:#282726;}.cls-10,.cls-16,.cls-18,.cls-36{fill:#fff;}.cls-10,.cls-34{opacity:0.15;}.cls-11{fill:#ffd135;}.cls-12,.cls-16{opacity:0.2;}.cls-12,.cls-34,.cls-40{mix-blend-mode:multiply;}.cls-13{fill:#9267dc;}.cls-14{stroke:#3a164c;}.cls-14,.cls-20,.cls-21,.cls-23,.cls-28,.cls-29,.cls-30,.cls-32,.cls-41{stroke-linecap:round;}.cls-14,.cls-20,.cls-21,.cls-23,.cls-28,.cls-32{stroke-linejoin:round;}.cls-14,.cls-29,.cls-30,.cls-41{stroke-width:0.44px;}.cls-15{fill:#ffc709;}.cls-17{fill:#743000;}.cls-19{fill:#ea2829;}.cls-20,.cls-28,.cls-30,.cls-32{stroke:#743000;}.cls-20{stroke-width:0.51px;}.cls-21{stroke:#b99ee8;stroke-width:1.09px;}.cls-22{fill:#3a164c;}.cls-23,.cls-41{stroke:#432f64;}.cls-23{stroke-width:0.72px;}.cls-24{opacity:0.5;}.cls-25{fill:#a34300;}.cls-26{fill:#c24822;}.cls-27{fill:#5d428c;}.cls-28{stroke-width:0.36px;}.cls-29{stroke:#a34300;}.cls-29,.cls-30,.cls-41{stroke-miterlimit:10;}.cls-31{fill:#ea2828;}.cls-32{stroke-width:0.54px;}.cls-33{clip-path:url(#clip-path-2);}.cls-35{fill:#ffda00;}.cls-36,.cls-40{opacity:0.45;}.cls-37{fill:#ff6900;}.cls-38{fill:#c18c66;}.cls-39{clip-path:url(#clip-path-3);}</style><clipPath id="clip-path"><path class="cls-1" d="M448.6,83.64C437,66,401.76,75,381,112.77c-23.61,42.87-29,51.44-69,50.18-23.9-.75-152.21-37.15-204.23-1.06C53.94,199.17,160.82,439.7,318.94,351.43,461.82,271.68,469.14,114.75,448.6,83.64Z"/></clipPath><clipPath id="clip-path-2"><path class="cls-2" d="M151.54,34.31l-7.08-2.64s-5.81,3.17-9.42,12.85a26.15,26.15,0,0,1-8.11,11.63,36.46,36.46,0,0,0,5.69,10.28,69.86,69.86,0,0,0,10,8.93c0-.07,0-.13,0-.21.09-7,6-16.72,6-16.72l4.13-15.67Z"/></clipPath><clipPath id="clip-path-3"><path class="cls-3" d="M225.12,217.88c-3.19-.06-6.32,1.37-9.29,4.25-7.57,7.32-22.32,40.86-22.92,42.22-7.09,15-17.22,22.66-30.1,22.66-11.69,0-18-10.27-20-32.33-1.76-20.1,1.14-36.42,7.48-61.34a279.44,279.44,0,0,1,9.49-28.56l-5.18-.55c-3,8-6.9,19.45-9,27.9-6.49,25.45-9.44,42.18-7.62,63,.8,9.1,3.23,36.8,24.85,36.8,14.94,0,26.56-8.57,34.56-25.53,4.14-9.45,16.15-35.21,21.86-40.73,5.19-5,8.65-2.1,9.29-1.46l3.52-3.41A10.3,10.3,0,0,0,225.12,217.88Z"/></clipPath></defs><title>_</title><g class="cls-4"><g id="Layer_1" data-name="Layer 1"><circle class="cls-5" cx="53.07" cy="271.1" r="16.21"/><circle class="cls-5" cx="460.82" cy="262.89" r="11.51"/><path class="cls-6" d="M448.6,83.64C437,66,401.76,75,381,112.77c-23.61,42.87-29,51.44-69,50.18-23.9-.75-152.21-37.15-204.23-1.06C53.94,199.17,160.82,439.7,318.94,351.43,461.82,271.68,469.14,114.75,448.6,83.64Z"/></g><g id="Layer_2" data-name="Layer 2"><circle class="cls-5" cx="460.82" cy="262.89" r="11.51"/><g class="cls-7"><rect class="cls-8" x="172.28" y="351.34" width="267.17" height="25.66"/><rect class="cls-9" x="172.28" y="231.63" width="267.17" height="119.72"/><rect class="cls-10" x="391.77" y="351.34" width="47.69" height="25.66"/><rect class="cls-10" x="391.77" y="231.63" width="47.69" height="119.72"/></g><polygon class="cls-11" points="402.45 112.98 425.94 128.45 430.06 151.83 427.37 152.38 406.1 134.13 398.01 135.8 384.7 160.58 382.21 161.09 379.29 139.66 392.57 112.3 399.25 110.22 402.45 112.98"/><path class="cls-12" d="M391.34,114.85c-.16.1-3.17,6.52-3.17,6.52s11.24,6.51,20.25-4.46l-6.1-4-10.67,1.71Z"/><path class="cls-11" d="M394.71,75.49a5.31,5.31,0,0,0-3.42-3.81l-7.47,6.91.67,3.24.39,1.91,6.51,31.59s1.45,2,6,1c3.92-.8,5.08-3.36,5.08-3.36l-7.73-37.51Z"/><path class="cls-11" d="M288.48,165.74l-4.43-4.36-11.3-17.55a42.52,42.52,0,0,0-18.19-3.91c-26.42,0-33.26,21.46-33.26,21.46V206.9h70.53V176.38C291.83,167.29,288.48,165.74,288.48,165.74Z"/><path class="cls-12" d="M288.48,165.74l-4.43-4.36-11.3-17.55a42.52,42.52,0,0,0-18.19-3.91c-26.42,0-33.26,21.46-33.26,21.46V206.9h70.53V176.38C291.83,167.29,288.48,165.74,288.48,165.74Z"/><polygon class="cls-11" points="295.81 98.86 263.58 91.06 238.29 135.23 284.81 148.49 295.81 98.86"/><polygon class="cls-12" points="295.81 98.86 263.58 91.06 238.29 135.23 284.81 148.49 295.81 98.86"/><path class="cls-11" d="M278.65,176.18,283,165.46l5-23.1c-1.63-4.15-6.47-12.47-19.88-17.28a50.62,50.62,0,0,0-28-1.64l-14.94,38.12L281.3,180l1.38-6.5Z"/><circle class="cls-11" cx="383.81" cy="71.43" r="9.86"/><circle class="cls-12" cx="383.81" cy="71.43" r="9.86"/><path class="cls-11" d="M337,41l8.87-.44L386,57.5s7,7.1,1.86,14.93-12.41,8.22-12.41,8.22L338.4,65.24,334.83,51.5"/><path class="cls-11" d="M333.49,36.12l7.93,5.93s8.46,6,4.12,15.94c-3,6.93-10.81,9.21-20.44,10.05C307,69.61,317.92,60,317.92,60"/><path class="cls-12" d="M333.49,36.12l7.93,5.93s8.46,6,4.12,15.94c-3,6.93-10.81,9.21-20.44,10.05C307,69.61,317.92,60,317.92,60"/><path class="cls-11" d="M299.4,104.19l39.37-42c3.73-3.73,9.33-14.53.64-23.22-6.84-6.84-15-4.92-20.76-.27s-46,42.06-46,42.06l2.66,17.48Z"/><polygon class="cls-13" points="427.09 231.63 408.06 212.03 408.06 231.63 427.09 231.63"/><polygon class="cls-3" points="388.42 231.63 408.06 212.03 408.06 231.63 388.42 231.63"/><polygon class="cls-13" points="408.06 231.63 389.03 212.03 389.03 231.63 408.06 231.63"/><polygon class="cls-3" points="369.39 231.63 389.03 212.03 389.03 231.63 369.39 231.63"/><path class="cls-11" d="M213.67,206.9H321.86a20.45,20.45,0,0,1,20.45,20.45v4.27a0,0,0,0,1,0,0h-137a0,0,0,0,1,0,0V215.31A8.4,8.4,0,0,1,213.67,206.9Z"/><path class="cls-12" d="M213.67,206.9H321.86a20.45,20.45,0,0,1,20.45,20.45v4.27a0,0,0,0,1,0,0h-137a0,0,0,0,1,0,0V215.31A8.4,8.4,0,0,1,213.67,206.9Z"/><path class="cls-11" d="M300.36,206.9H198.2a10.15,10.15,0,0,0-10.15,10.16v14.57h137A24.73,24.73,0,0,0,300.36,206.9Z"/><circle class="cls-11" cx="282.49" cy="97.11" r="22.62"/><circle class="cls-14" cx="284.89" cy="94.95" r="20.05"/><polyline class="cls-15" points="407.07 131.63 430.06 151.83 427.37 152.38 406.1 134.13 407.07 131.63"/><polygon class="cls-15" points="384.7 160.58 381.97 139.54 379.29 139.66 382.21 161.09 384.7 160.58"/><polygon class="cls-16" points="381.93 139.62 387.93 127.37 386.03 125.78 379.29 139.66 381.93 139.62"/><path class="cls-16" d="M389.89,81.68l6.43,31.21a1,1,0,0,0,1.21.76l.22-.05a1,1,0,0,0,.81-1.17L391.92,80.2A9.51,9.51,0,0,1,389.89,81.68Z"/><path class="cls-16" d="M386.19,60.71,352,47.31a2.26,2.26,0,0,0-2.92,1.28h0a2.26,2.26,0,0,0,1.28,2.92l36.77,14.42A10.94,10.94,0,0,0,386.19,60.71Z"/><path class="cls-16" d="M318.52,46.41a2.41,2.41,0,0,0-3.4-.15L284.33,74.58a22.41,22.41,0,0,1,5.75,1.24l28.29-26A2.4,2.4,0,0,0,318.52,46.41Z"/><path class="cls-16" d="M283.93,142.23a14.55,14.55,0,0,0-3.86-5l-9.17,30.91,7.1,3Z"/><path class="cls-11" d="M284.05,161.38V206.9H213.52V161.38s6.84-21.46,33.26-21.46A42.65,42.65,0,0,1,284.05,161.38Z"/><path class="cls-17" d="M272.37,231.63l-2.7-6.34c-.87-2-2.29-5.15-8.44-5.16-6.79,0-45.46,0-45.46,0s-6-.46-8.32,3.64a68.59,68.59,0,0,0-3.89,7.86Z"/><path class="cls-16" d="M225.16,154.3a2.41,2.41,0,0,0-2.37,2.43l.55,48.72h4.76l-.51-48.78A2.39,2.39,0,0,0,225.16,154.3Z"/><path class="cls-14" d="M246.79,122.36s8.2-1.18,20.68,2.49A34.47,34.47,0,0,1,286,138.42m-4.86-6.74,3.57-12.05M262,106.39l-8,14.51"/><path class="cls-14" d="M289.93,118.48s-7.65,3.8-19-1.94c-7-3.5-9.53-10.65-10.48-15.68"/><circle class="cls-14" cx="284.89" cy="94.95" r="20.05"/><path class="cls-14" d="M393.38,73.83a9.7,9.7,0,0,1-8.31,7.38"/><path class="cls-14" d="M407.66,117.79s-3.92,4.21-8.58,5.17a16.73,16.73,0,0,1-10.3-1.28"/><path class="cls-14" d="M391.82,115.71s1.93,1.38,6.06.53a7.79,7.79,0,0,0,4.18-2.64"/><line class="cls-14" x1="406.57" y1="132.91" x2="411.43" y2="120.41"/><line class="cls-14" x1="396.74" y1="134.73" x2="386.31" y2="126.03"/><line class="cls-14" x1="407.07" y1="131.63" x2="429.27" y2="151.13"/><path class="cls-14" d="M344,44.66s4.27,5.55,2,12.08c-2,5.78-6.94,7.95-9.65,9.13"/><path class="cls-14" d="M215.42,206.9h69.1l-.19-45.24s-7.59-20.08-46-20.08"/><path class="cls-18" d="M123,363.56l-2.77-1v6.28l27.46.17a7.8,7.8,0,0,0-.22-3.52c-.57-1.85-15.42-4-15.42-4"/><path class="cls-19" d="M120.12,348.89s-.07,4.65-.29,7a25.19,25.19,0,0,0,.33,8.34,11.34,11.34,0,0,1,4.12,1.8H147.7s-.52-2.42-3.83-3.84C130.28,357.36,130,344,130,344"/><path class="cls-20" d="M128.94,363.77s2.7-2.27,12.74-2"/><path class="cls-21" d="M134.43,356.44s-4.18-.68-7,1.27"/><path class="cls-21" d="M133,353.94s-4.18-.67-7,1.28"/><path class="cls-18" d="M91.66,363.56l2.77-1v6.28L67,369a7.8,7.8,0,0,1,.22-3.52c.57-1.85,15.42-4,15.42-4"/><path class="cls-19" d="M94.55,348.89s.07,4.65.29,7a25.19,25.19,0,0,1-.33,8.34,11.34,11.34,0,0,0-4.12,1.8H67s.52-2.42,3.82-3.84C84.38,357.36,84.63,344,84.63,344"/><path class="cls-20" d="M85.73,363.77S83,361.5,73,361.8"/><path class="cls-21" d="M80.24,356.44s4.18-.68,7,1.27"/><path class="cls-21" d="M81.72,353.94s4.18-.67,7,1.28"/><path class="cls-22" d="M135.57,153.42c.89-.57,12.51,33.24,13.63,55,.18,3.57-.53,32.07-3.54,62.79-3.13,32-9.33,66.41-12,78.94,0,0-10.14,2-16,.42l-.71-4L114,290.81s-1-9.86.78-15.13,4.78-15.09,4.88-23.21S117.79,218,117.79,218s-3.67,21.41-5.1,28.79c-1.18,6-1.43,10.06-2.5,14.74s-10.3,40.12-10.3,40.12-3.81,29-3.12,48.8c0,0-11.31,2.95-16.29-1.06a376.3,376.3,0,0,1-4.68-76.44l4.1-18.74s3.9-21.67,3.9-27.62-.31-25.94-.41-28.28.9-12.32.9-12.32l10.76-30.19Z"/><path class="cls-23" d="M125.56,168.39l1.14,24.85s-7.29,7-8.25,9.31m1.31-6.32c.62-6.15-1.31-23.71-1.31-23.71"/><path class="cls-17" d="M141.5,162.93,132,149.37l-33.64.45-7,8.63a1.86,1.86,0,0,0-1.8,1.58c-.28,1.58.6,3.27.22,4-.84,1.61-1.39,3.08-.17,3.88.48.31,1.24.83,2.29,1.44h0s7.05,6.14,29.16,5.8c1.84,0,3.63,0,5.6-.21h.3c8.47-.44,13.54-3.69,15-5.74C143.16,167.64,141.5,162.93,141.5,162.93Z"/><path class="cls-8" d="M223.05,113.57l-1.11-.11h0L185.41,110a1.8,1.8,0,0,0-1.67.81l-32.18,49.44h0l-.61.95a1.79,1.79,0,0,0,1.31,2.77l36,3.77h0l1.11.11a1.8,1.8,0,0,0,1.69-.8l32.67-49.78,0,0,.6-.92A1.79,1.79,0,0,0,223.05,113.57Z"/><path class="cls-18" d="M223.18,118.23l-32,48.76a1.74,1.74,0,0,1-1.65.78l-35.25-3.69a1.76,1.76,0,0,1-1.29-2.71l31.52-48.43a1.78,1.78,0,0,1,1.64-.79l35.74,3.37A1.75,1.75,0,0,1,223.18,118.23Z"/><path class="cls-24" d="M223.18,118.23l-32,48.76a1.74,1.74,0,0,1-1.65.78l-35.25-3.69a1.76,1.76,0,0,1-1.29-2.71l31.52-48.43a1.78,1.78,0,0,1,1.64-.79l35.74,3.37A1.75,1.75,0,0,1,223.18,118.23Z"/><ellipse class="cls-8" cx="189.03" cy="116.65" rx="2.2" ry="2.86" transform="translate(46.93 287.38) rotate(-81.91)"/><ellipse class="cls-9" cx="189.11" cy="116.7" rx="1.48" ry="1.89" transform="translate(46.96 287.51) rotate(-81.91)"/><path class="cls-17" d="M147.63,80.55s5.19,4.88,5,10.84,2.51,20.34,3.57,23.87.69,10.6.69,10.6,7.43,1.09,7.31,4.38l-.12,3.29-12.67,6.39-14.86-3.59-6.94-22.16,6.58-24.48"/><path class="cls-25" d="M134,74l9.1,6.24,4.58,6.17a25.69,25.69,0,0,1,1.06,7.76v4.72s-.89,10.56,1.27,14.82c1,2.17,1.32,3.69-.91,12.06-2.74,10.27-7.6,37.18-7.6,37.18l-2.73,1.56-16.92-21.3,1.09-30.61L124,82.89"/><path class="cls-26" d="M144.34,80.22s3.35,6.66,1.78,11.57-2.36,13.07-1.78,20.7,3.09,12.9,2.2,16-8.11,27.08-7.08,35.61c0,0-5.69,4.11-24.79,3.26-18.87-.83-23.33-8.9-23.33-8.9s-.53-49.26-1.26-66.88,7.14-34.29,24.21-34.72S132,71.9,132,71.9"/><path class="cls-27" d="M143.5,62.35S158,65.78,154.59,79c-1.86,7.2-7.74,6.61-7.74,6.61l-11.76-11.2-1.52-7.19"/><path class="cls-22" d="M145.18,80.22c6.81-10.11-2.13-16.64-2.13-16.64l-9.48,3.62-.79,4.33Z"/><path class="cls-2" d="M152.14,134.36s6.37-1.53,10.47-4.17c2-1.29,2.92-1.53,4.3-1.1s4.27,1,4.27,1l-2.43,3.74,12.84,6a17.34,17.34,0,0,1-1.46,2.84,13.24,13.24,0,0,1-2.84,3.28L175,147.12l-.65,1.16s-6.93,2.63-9.11,2.63-15.09-4.3-15.09-4.3Z"/><path class="cls-28" d="M179.41,141c-8.23,1.77-12,1.5-12,1.5M166.23,148a32.51,32.51,0,0,0,7.61-1.6"/><path class="cls-29" d="M156,126.23a6.2,6.2,0,0,0-2.73,1.71c-1.29,1.36-2.5,3-2.5,3"/><path class="cls-30" d="M139.35,161.91s.36-5.5.84-7.67,1.13-6.15,1.13-6.15m1.08-6.35s2.28-7.08,3.9-12.45c1.24-4.09-.32-7.63-.77-9.41A53.69,53.69,0,0,1,144,107.49a63.26,63.26,0,0,1,1.69-14.26"/><path class="cls-31" d="M155.36,132.06c-11.1,1.7-30.38.06-35.92-3.12s-12.86-3.54-12.86-3.54c-.12-10.5,9.41-33.13,9.41-33.13a35,35,0,0,0-7.31-23.47S103.25,61.73,96.41,66c-2.89,1.8-5.83,8.18-8.27,14.94,0,.14-5.68,18.34-6.59,33.51-.55,9.11-1.13,16.35-1.24,18.85-.21,4.6-.69,9.89,6.82,13.17s13.75,4.87,21.48,4.44,19.78-.36,27.76-1.52,16.14,1.53,16.14,1.53,2.75-2.8,3.43-9.52S155.36,132.06,155.36,132.06Z"/><path class="cls-32" d="M145.75,147.54c2.36-3.78,2.95-13.92,2.95-13.92,2.36,4.95-.71,13.92-.71,13.92"/><path class="cls-13" d="M142.59,75.36s6.52,4,5.09,11l-1.18,3.45s-.17-6.39-7.63-8.87S121.49,76.23,114,68.89s-6.66-10.59-3.73-13.82,13.25-7.72,22.36-3.45,8.8,17.92,8.8,17.92"/><path class="cls-2" d="M151.54,34.31l-7.08-2.64s-5.81,3.17-9.42,12.85a26.15,26.15,0,0,1-8.11,11.63,36.46,36.46,0,0,0,5.69,10.28,69.86,69.86,0,0,0,10,8.93c0-.07,0-.13,0-.21.09-7,6-16.72,6-16.72l4.13-15.67Z"/><g class="cls-33"><path class="cls-34" d="M137.9,37.67s-8,21.82,9.34,32.78,4.27-26.92,4.27-26.92l-13.36-8.69"/></g><path class="cls-35" d="M175.78,40.26a19.62,19.62,0,0,0,0-19.81C169.77,9.6,158.09,9,158.09,9S143.23,8.07,137,24.64l10.14,2.23,18.4,6.9Z"/><path class="cls-35" d="M174.17,38.87s7.51-12,2.5-20.44C171.39,9.54,165.42,9,163.2,10.11a10.14,10.14,0,0,1,4.57,7.33c.73,5.21.23,11.8-1.84,15Z"/><path class="cls-36" d="M174.17,38.87s7.51-12,2.5-20.44C171.39,9.54,165.42,9,163.2,10.11c0,0,4.1,1.09,5.8,6.74,1.51,5-1.19,12.13-2.71,15.9Z"/><path class="cls-35" d="M178.92,42.49a39.19,39.19,0,0,0-8.4-7.88c-8.15-5.51-13.71-7.84-26.39-9.91a48.93,48.93,0,0,0-7.4-.68c-.43,0-.86.22-1.26,1.15l-1.09,2.44h0a2,2,0,0,0,.09,1.72,7.77,7.77,0,0,0,3.68,3.39c2.81,1,13.94,2.39,13.94,2.39l17.33,7A28.85,28.85,0,0,0,174,44.39l.86.3.5.15.38.1.72.16.14,0,.78.09h.07a6,6,0,0,0,.6,0,2.69,2.69,0,0,0,1.53-.56C180.05,44.28,179.56,43.36,178.92,42.49Z"/><path class="cls-37" d="M165,11c6.49,5.4,3.92,14,1.68,20.59-.06.17.21.25.27.08,2.27-6.69,4.82-15.4-1.75-20.86-.13-.12-.33.08-.2.19Z"/><path class="cls-36" d="M178.92,42.49a39.19,39.19,0,0,0-8.4-7.88c-8.15-5.51-13.71-7.84-26.39-9.91a48.93,48.93,0,0,0-7.4-.68c-.43,0-.86.22-1.26,1.15l-1.09,2.44h0a2,2,0,0,0,.09,1.72,7.77,7.77,0,0,0,3.68,3.39c2.81,1,13.94,2.39,13.94,2.39l17.33,7A28.85,28.85,0,0,0,174,44.39l.86.3.5.15.38.1.72.16.14,0,.78.09h.07a6,6,0,0,0,.6,0,2.69,2.69,0,0,0,1.53-.56C180.05,44.28,179.56,43.36,178.92,42.49Z"/><path class="cls-22" d="M176.93,42.81c-2.2-2.13-7.35-6-19.82-11.45-7.51-3.27-16.05-4.22-21.66-4.46a1.22,1.22,0,0,0-1.07.71,2,2,0,0,0,.09,1.72,7.77,7.77,0,0,0,3.68,3.39c2.81,1,13.94,2.39,13.94,2.39l17.33,7s4.73,3,8.13,3.11C177.77,45.16,178.93,44.76,176.93,42.81Z"/><path class="cls-22" d="M151.94,31c-12.23-3.7-13.79-3-13.79-3a51,51,0,0,1-1.79,7.74,37.51,37.51,0,0,1-3.73,6.37,2.73,2.73,0,0,0-.58,2.27c.3,1.19,3,1.82,3,1.82a10.42,10.42,0,0,0,5.62-5,5.6,5.6,0,0,0,.22-.54L144,44.8l3.67,1.51s1-1.65,1.86-3l14,1.46L171,40S164.17,34.67,151.94,31Z"/><path class="cls-2" d="M162,36.51a4.81,4.81,0,0,0-3.37-.16c-1.72.48-3.26,2.42-6.39,3-2.77.51-5.6,5.53-5.6,5.53l-1.35-.75s-.14-.35,1.14-4.55c1.36-4.48-1.94-5.82-3.22-5.82s-3.65-.14-4.92,5.25,4.9,9,4.9,9l-.55,3.58a38.18,38.18,0,0,0,0,5.15c2.81,3.73,10.12,7.94,12.05,8.76a3,3,0,0,0,2.45,0c6.43-5.28,10.72-15,11.79-17.86A65.75,65.75,0,0,0,171,40C167.53,41,163.27,37.2,162,36.51Z"/><path class="cls-13" d="M171.46,44.54s-10.09-5.3-11.08-5.77a11.79,11.79,0,0,0-2.5-.73l-11.14-1.1a6.15,6.15,0,0,1-.27,2.65c-.13.43-.24.81-.35,1.16,2.15,2.66,6.6,8.11,7.67,8.92a16.47,16.47,0,0,0,2.6,1.4h0c.4.19.82.37,1.23.55L160.86,53a8.73,8.73,0,0,0,3.69,1.71c.33.08.66.14.89.18.41.06.81.11,1.19.13a3.21,3.21,0,0,0,2.28-.52s2.68-5.3,3.49-7.37S171.46,44.54,171.46,44.54Z"/><path class="cls-27" d="M171.46,44.54s-10.09-5.3-11.08-5.77a7,7,0,0,0-.94-.36s-4.73,3.07-5.65,11.26a10.94,10.94,0,0,0,1.82,1l7.77,4.37-.06-.65,1.23.33c.33.08.66.14.89.18.41.06.81.11,1.19.13a3.21,3.21,0,0,0,2.28-.52s2.68-5.3,3.49-7.37S171.46,44.54,171.46,44.54Z"/><path class="cls-13" d="M171.46,44.54l-1.33-.69c-.34,1.27-.74,2.66-1.18,3.84a53.85,53.85,0,0,1-3.43,7.25,11,11,0,0,0,1.11.12,3.21,3.21,0,0,0,2.28-.52s2.68-5.3,3.49-7.37S171.46,44.54,171.46,44.54Z"/><path class="cls-38" d="M163.59,57.19a1.53,1.53,0,0,0,2.09-1.42,34.47,34.47,0,0,0,.43-4.55,21.63,21.63,0,0,0,.07-3c-.05-1-1.3.32-1.9,1.11s-3.6,5.37-4.32,6.49A31.9,31.9,0,0,0,163.59,57.19Z"/><path class="cls-17" d="M101.57,64.88c11.09,2.53,14.34,17.72,14.15,27.39a.27.27,0,0,0,.54,0c.2-9.9-3.18-25.32-14.55-27.92-.34-.07-.49.45-.14.53Z"/><path class="cls-3" d="M240.75,220.09h3.87a10.48,10.48,0,0,0-7.45-3.47c-5.68-.31-13.47,8.36-16.4,14.9a1.17,1.17,0,0,0-.05.11h5.91s5.6-11.16,14.12-11.53Z"/><path class="cls-3" d="M225.12,217.88c-3.19-.06-6.32,1.37-9.29,4.25-7.57,7.32-22.32,40.86-22.92,42.22-7.09,15-17.22,22.66-30.1,22.66-11.69,0-18-10.27-20-32.33-1.76-20.1,1.14-36.42,7.48-61.34a279.44,279.44,0,0,1,9.49-28.56l-5.18-.55c-3,8-6.9,19.45-9,27.9-6.49,25.45-9.44,42.18-7.62,63,.8,9.1,3.23,36.8,24.85,36.8,14.94,0,26.56-8.57,34.56-25.53,4.14-9.45,16.15-35.21,21.86-40.73,5.19-5,8.65-2.1,9.29-1.46l3.52-3.41A10.3,10.3,0,0,0,225.12,217.88Z"/><g class="cls-39"><polygon class="cls-40" points="167.18 168.32 146.82 165.96 146.15 157.34 170.42 157.34 167.18 168.32"/></g><path class="cls-41" d="M229.82,219.83s-1.95,1.66-2.7,2.5"/><path class="cls-23" d="M101.41,294.07c-.62,1.94-1.15,3.63-1.56,4.86C97.66,305.6,95,317,95,317"/><path class="cls-32" d="M105.09,126s-6.13-.12-12.85,6"/><path class="cls-18" d="M374.9,323.61A217.13,217.13,0,0,0,425.08,258c1.43-2.87-2.88-5.41-4.32-2.52a213.32,213.32,0,0,1-49.39,64.6c-2.41,2.14,1.13,5.67,3.53,3.54Z"/><path class="cls-6" d="M376.94,317.82a204.85,204.85,0,0,0,63.18-87c1.14-3-3.69-4.32-4.82-1.33a200.29,200.29,0,0,1-61.89,84.79c-2.51,2,1,5.53,3.53,3.53Z"/><path class="cls-6" d="M444.62,217.66c3.22,0,3.22-5,0-5s-3.22,5,0,5Z"/><path class="cls-6" d="M322.29,156.68a45.56,45.56,0,0,0,38.58-14.58c2.16-2.37-1.36-5.92-3.54-3.54a40.89,40.89,0,0,1-35,13.12c-3.19-.35-3.16,4.65,0,5Z"/><path class="cls-6" d="M367.7,127.09a25.72,25.72,0,0,0,3.5-5.74,2.58,2.58,0,0,0-.9-3.42,2.52,2.52,0,0,0-3.42.9,20.82,20.82,0,0,1-2.72,4.73,2.58,2.58,0,0,0,0,3.53,2.52,2.52,0,0,0,3.54,0Z"/><path class="cls-6" d="M362.11,135.64c3.22,0,3.23-5,0-5s-3.22,5,0,5Z"/><path class="cls-6" d="M401.39,82.37a93.65,93.65,0,0,1,16.44-8.18c5.92-2.21,13-4.85,19.35-3.76,3.15.54,4.5-4.28,1.33-4.82-13.24-2.28-28.7,5.67-39.64,12.44-2.73,1.69-.22,6,2.52,4.32Z"/><path class="cls-6" d="M444.62,74c3.22,0,3.22-5,0-5s-3.22,5,0,5Z"/><path class="cls-6" d="M450.44,81.77c3.22,0,3.23-5,0-5s-3.22,5,0,5Z"/></g></g></svg>